<svg t="1708182002590" class="icon" viewBox="0 0 1024 1024" version="1.1" xmlns="http://www.w3.org/2000/svg" p-id="8277" width="200" height="200"><path d="M794.17 147.91c45.16 0.2 81.71 36.76 81.92 81.92v564.34c-0.2 45.16-36.76 81.71-81.92 81.92H229.83c-45.16-0.2-81.71-36.76-81.92-81.92V229.83c0.2-45.16 36.76-81.71 81.92-81.92h564.34m0-45.51H229.83c-70.09 0-127.43 57.34-127.43 127.43v564.34c0 70.08 57.34 127.43 127.43 127.43h564.34c70.08 0 127.43-57.34 127.43-127.43V229.83c0-70.09-57.34-127.43-127.43-127.43z m0 0" p-id="8278"></path><path d="M512 757.17c-13.49 0-24.52-11.03-24.52-24.52v-441.3c0-13.48 11.03-24.52 24.52-24.52 13.48 0 24.52 11.03 24.52 24.52v441.3c0 13.49-11.03 24.52-24.52 24.52z m0 0" p-id="8279"></path><path d="M266.83 291.35c0-13.48 11.03-24.52 24.52-24.52h441.3c13.49 0 24.52 11.03 24.52 24.52 0 13.48-11.03 24.52-24.52 24.52h-441.3c-13.49 0-24.52-11.04-24.52-24.52z m0 0" p-id="8280"></path></svg>